<mxfile host="app.diagrams.net" modified="2023-03-13T12:08:46.765Z" agent="5.0 (Windows NT 10.0; Win64; x64) AppleWebKit/537.36 (KHTML, like Gecko) Chrome/110.0.0.0 Safari/537.36" etag="89V-cZ0bU5OPLp2BWNVr" version="20.8.23" type="github" pages="2">
  <diagram id="Hz9vTrac9k6EBb7m44WP" name="შეღავათიანიi კურსზე შეთანხმება SD">
    <mxGraphModel dx="1632" dy="824" grid="1" gridSize="10" guides="1" tooltips="1" connect="1" arrows="1" fold="1" page="1" pageScale="1" pageWidth="2336" pageHeight="1654" math="0" shadow="0">
      <root>
        <mxCell id="0" />
        <mxCell id="1" parent="0" />
        <mxCell id="NapRjpGxGWk-yeD8tq0e-1" value="ბიზნეს ინტერნეტ ბანკი" style="shape=umlLifeline;perimeter=lifelinePerimeter;whiteSpace=wrap;html=1;container=1;collapsible=0;recursiveResize=0;outlineConnect=0;rounded=1;shadow=0;comic=0;labelBackgroundColor=none;strokeWidth=1;fontFamily=Verdana;fontSize=12;align=center;" parent="1" vertex="1">
          <mxGeometry x="108" y="80" width="175" height="1240" as="geometry" />
        </mxCell>
        <mxCell id="NapRjpGxGWk-yeD8tq0e-2" value="" style="html=1;points=[];perimeter=orthogonalPerimeter;rounded=0;shadow=0;comic=0;labelBackgroundColor=none;strokeWidth=1;fontFamily=Verdana;fontSize=12;align=center;fillColor=#CCFFFF;" parent="NapRjpGxGWk-yeD8tq0e-1" vertex="1">
          <mxGeometry x="82.5" y="70" width="10" height="1130" as="geometry" />
        </mxCell>
        <mxCell id="reUfo1CFChtaAdtldBo7-3" value="" style="endArrow=classic;html=1;rounded=0;strokeColor=default;edgeStyle=orthogonalEdgeStyle;exitX=0.2;exitY=0.153;exitDx=0;exitDy=0;exitPerimeter=0;" parent="NapRjpGxGWk-yeD8tq0e-1" edge="1">
          <mxGeometry width="50" height="50" relative="1" as="geometry">
            <mxPoint x="80" y="90.00000000000003" as="sourcePoint" />
            <mxPoint x="82.5" y="111.15" as="targetPoint" />
            <Array as="points">
              <mxPoint x="-28" y="90" />
              <mxPoint x="-28" y="111" />
            </Array>
          </mxGeometry>
        </mxCell>
        <mxCell id="reUfo1CFChtaAdtldBo7-4" value="მოთხოვნის ID -ის&lt;br&gt;ფორმირება" style="edgeLabel;html=1;align=center;verticalAlign=middle;resizable=0;points=[];" parent="reUfo1CFChtaAdtldBo7-3" vertex="1" connectable="0">
          <mxGeometry x="-0.23" y="1" relative="1" as="geometry">
            <mxPoint x="18" y="-16" as="offset" />
          </mxGeometry>
        </mxCell>
        <mxCell id="JqXxi1MpLHZqpj23ZU03-1" value="" style="endArrow=classic;html=1;rounded=0;strokeColor=default;edgeStyle=orthogonalEdgeStyle;exitX=0.2;exitY=0.153;exitDx=0;exitDy=0;exitPerimeter=0;" parent="NapRjpGxGWk-yeD8tq0e-1" edge="1">
          <mxGeometry width="50" height="50" relative="1" as="geometry">
            <mxPoint x="80" y="360" as="sourcePoint" />
            <mxPoint x="82.5" y="381.15" as="targetPoint" />
            <Array as="points">
              <mxPoint x="-28" y="360" />
              <mxPoint x="-28" y="381" />
            </Array>
          </mxGeometry>
        </mxCell>
        <mxCell id="JqXxi1MpLHZqpj23ZU03-2" value="კლიენტის მხრიდან&lt;br&gt;გადაწყვეტილების მიღება" style="edgeLabel;html=1;align=center;verticalAlign=middle;resizable=0;points=[];" parent="JqXxi1MpLHZqpj23ZU03-1" vertex="1" connectable="0">
          <mxGeometry x="-0.23" y="1" relative="1" as="geometry">
            <mxPoint x="18" y="-8" as="offset" />
          </mxGeometry>
        </mxCell>
        <mxCell id="lTMrrN4QKwK92IM0Nk2y-34" value="" style="endArrow=classic;html=1;rounded=0;strokeColor=default;edgeStyle=orthogonalEdgeStyle;exitX=0.2;exitY=0.153;exitDx=0;exitDy=0;exitPerimeter=0;" parent="NapRjpGxGWk-yeD8tq0e-1" edge="1">
          <mxGeometry width="50" height="50" relative="1" as="geometry">
            <mxPoint x="80" y="1160" as="sourcePoint" />
            <mxPoint x="82.5" y="1181.15" as="targetPoint" />
            <Array as="points">
              <mxPoint x="-28" y="1160" />
              <mxPoint x="-28" y="1181" />
            </Array>
          </mxGeometry>
        </mxCell>
        <mxCell id="lTMrrN4QKwK92IM0Nk2y-35" value="კლიენტისთვის&lt;br&gt;ოპერაციის სტატუსის&lt;br&gt;გამოტანა" style="edgeLabel;html=1;align=center;verticalAlign=middle;resizable=0;points=[];" parent="lTMrrN4QKwK92IM0Nk2y-34" vertex="1" connectable="0">
          <mxGeometry x="-0.23" y="1" relative="1" as="geometry">
            <mxPoint x="12" y="-17" as="offset" />
          </mxGeometry>
        </mxCell>
        <mxCell id="OC2dcXIhTSpHi5Ehb43I-1" value="TPS.Operational.Api" style="shape=umlLifeline;perimeter=lifelinePerimeter;whiteSpace=wrap;html=1;container=1;collapsible=0;recursiveResize=0;outlineConnect=0;rounded=1;shadow=0;comic=0;labelBackgroundColor=none;strokeWidth=1;fontFamily=Verdana;fontSize=12;align=center;" parent="1" vertex="1">
          <mxGeometry x="548" y="80" width="160" height="1240" as="geometry" />
        </mxCell>
        <mxCell id="OC2dcXIhTSpHi5Ehb43I-3" value="" style="html=1;points=[];perimeter=orthogonalPerimeter;outlineConnect=0;targetShapes=umlLifeline;portConstraint=eastwest;newEdgeStyle={&quot;edgeStyle&quot;:&quot;elbowEdgeStyle&quot;,&quot;elbow&quot;:&quot;vertical&quot;,&quot;curved&quot;:0,&quot;rounded&quot;:0};fillColor=#CCFFFF;" parent="OC2dcXIhTSpHi5Ehb43I-1" vertex="1">
          <mxGeometry x="75" y="110" width="10" height="230" as="geometry" />
        </mxCell>
        <mxCell id="reUfo1CFChtaAdtldBo7-1" value="" style="html=1;points=[];perimeter=orthogonalPerimeter;outlineConnect=0;targetShapes=umlLifeline;portConstraint=eastwest;newEdgeStyle={&quot;edgeStyle&quot;:&quot;elbowEdgeStyle&quot;,&quot;elbow&quot;:&quot;vertical&quot;,&quot;curved&quot;:0,&quot;rounded&quot;:0};fillColor=#CCFFFF;" parent="OC2dcXIhTSpHi5Ehb43I-1" vertex="1">
          <mxGeometry x="75" y="410" width="10" height="90" as="geometry" />
        </mxCell>
        <mxCell id="2njt6nfOIMfhhEkoGc3B-12" value="" style="endArrow=classic;html=1;rounded=0;strokeColor=default;edgeStyle=orthogonalEdgeStyle;" parent="OC2dcXIhTSpHi5Ehb43I-1" edge="1">
          <mxGeometry width="50" height="50" relative="1" as="geometry">
            <mxPoint x="85" y="440" as="sourcePoint" />
            <mxPoint x="85" y="470" as="targetPoint" />
            <Array as="points">
              <mxPoint x="170" y="440.5" />
              <mxPoint x="170" y="470.5" />
            </Array>
          </mxGeometry>
        </mxCell>
        <mxCell id="Ki9TBUzkQfGxFeOzV7n9-6" value="გარიგების სტატუსის&lt;br&gt;ცვლილება" style="edgeLabel;html=1;align=center;verticalAlign=middle;resizable=0;points=[];" parent="2njt6nfOIMfhhEkoGc3B-12" vertex="1" connectable="0">
          <mxGeometry x="-0.23" y="1" relative="1" as="geometry">
            <mxPoint x="18" y="-8" as="offset" />
          </mxGeometry>
        </mxCell>
        <mxCell id="JqXxi1MpLHZqpj23ZU03-3" value="" style="endArrow=classic;html=1;rounded=0;strokeColor=default;edgeStyle=orthogonalEdgeStyle;" parent="OC2dcXIhTSpHi5Ehb43I-1" edge="1">
          <mxGeometry width="50" height="50" relative="1" as="geometry">
            <mxPoint x="85" y="220" as="sourcePoint" />
            <mxPoint x="85" y="250" as="targetPoint" />
            <Array as="points">
              <mxPoint x="172" y="220" />
              <mxPoint x="172" y="250" />
            </Array>
          </mxGeometry>
        </mxCell>
        <mxCell id="JqXxi1MpLHZqpj23ZU03-4" value="ვალიდაცია,&lt;br&gt;დელეგირებული პირი" style="edgeLabel;html=1;align=center;verticalAlign=middle;resizable=0;points=[];" parent="JqXxi1MpLHZqpj23ZU03-3" vertex="1" connectable="0">
          <mxGeometry x="-0.23" y="1" relative="1" as="geometry">
            <mxPoint x="18" y="1" as="offset" />
          </mxGeometry>
        </mxCell>
        <mxCell id="uLg5EmaOAYXGtRVUcYHG-2" value="" style="endArrow=classic;html=1;rounded=0;strokeColor=default;edgeStyle=orthogonalEdgeStyle;" edge="1" parent="OC2dcXIhTSpHi5Ehb43I-1">
          <mxGeometry width="50" height="50" relative="1" as="geometry">
            <mxPoint x="85" y="280" as="sourcePoint" />
            <mxPoint x="85" y="310" as="targetPoint" />
            <Array as="points">
              <mxPoint x="172" y="280" />
              <mxPoint x="172" y="310" />
            </Array>
          </mxGeometry>
        </mxCell>
        <mxCell id="uLg5EmaOAYXGtRVUcYHG-3" value="ვალიდაცია,&lt;br&gt;მაღალი დონის" style="edgeLabel;html=1;align=center;verticalAlign=middle;resizable=0;points=[];" vertex="1" connectable="0" parent="uLg5EmaOAYXGtRVUcYHG-2">
          <mxGeometry x="-0.23" y="1" relative="1" as="geometry">
            <mxPoint x="18" y="1" as="offset" />
          </mxGeometry>
        </mxCell>
        <mxCell id="no12ammSPmac_XV-QVry-1" value="" style="endArrow=classic;html=1;rounded=0;strokeColor=default;edgeStyle=orthogonalEdgeStyle;" edge="1" parent="OC2dcXIhTSpHi5Ehb43I-1">
          <mxGeometry width="50" height="50" relative="1" as="geometry">
            <mxPoint x="85" y="1070" as="sourcePoint" />
            <mxPoint x="85" y="1100" as="targetPoint" />
            <Array as="points">
              <mxPoint x="170" y="1070.5" />
              <mxPoint x="170" y="1100.5" />
            </Array>
          </mxGeometry>
        </mxCell>
        <mxCell id="no12ammSPmac_XV-QVry-2" value="გარიგების სტატუსის&lt;br&gt;ცვლილება" style="edgeLabel;html=1;align=center;verticalAlign=middle;resizable=0;points=[];" vertex="1" connectable="0" parent="no12ammSPmac_XV-QVry-1">
          <mxGeometry x="-0.23" y="1" relative="1" as="geometry">
            <mxPoint x="18" y="-8" as="offset" />
          </mxGeometry>
        </mxCell>
        <mxCell id="Q5-hK6MubIxNDAZBo6VR-1" value="" style="endArrow=classic;html=1;rounded=0;strokeColor=default;edgeStyle=orthogonalEdgeStyle;" edge="1" parent="OC2dcXIhTSpHi5Ehb43I-1">
          <mxGeometry width="50" height="50" relative="1" as="geometry">
            <mxPoint x="85" y="160" as="sourcePoint" />
            <mxPoint x="85" y="190" as="targetPoint" />
            <Array as="points">
              <mxPoint x="170" y="160.5" />
              <mxPoint x="170" y="190.5" />
            </Array>
          </mxGeometry>
        </mxCell>
        <mxCell id="Q5-hK6MubIxNDAZBo6VR-2" value="გარიგების ჩანაწერის&lt;br&gt;შექმნა" style="edgeLabel;html=1;align=center;verticalAlign=middle;resizable=0;points=[];" vertex="1" connectable="0" parent="Q5-hK6MubIxNDAZBo6VR-1">
          <mxGeometry x="-0.23" y="1" relative="1" as="geometry">
            <mxPoint x="18" y="-8" as="offset" />
          </mxGeometry>
        </mxCell>
        <mxCell id="OC2dcXIhTSpHi5Ehb43I-4" value="შეღავათიანი კურსის&lt;br&gt;მოთხოვნა" style="html=1;verticalAlign=bottom;endArrow=block;edgeStyle=elbowEdgeStyle;elbow=vertical;curved=0;rounded=0;entryX=0;entryY=0.5;entryDx=0;entryDy=0;" parent="1" source="NapRjpGxGWk-yeD8tq0e-1" target="aCDmaK2JJfqGugbTNvCX-6" edge="1">
          <mxGeometry x="-0.0345" y="14" relative="1" as="geometry">
            <mxPoint x="348" y="190" as="sourcePoint" />
            <Array as="points">
              <mxPoint x="248" y="204" />
              <mxPoint x="238" y="220" />
              <mxPoint x="248" y="200" />
            </Array>
            <mxPoint as="offset" />
          </mxGeometry>
        </mxCell>
        <mxCell id="OC2dcXIhTSpHi5Ehb43I-5" value="&lt;b&gt;ახალი კურსის&lt;br&gt;დაბრუნება&lt;/b&gt;" style="html=1;verticalAlign=bottom;endArrow=open;dashed=1;endSize=8;edgeStyle=elbowEdgeStyle;elbow=vertical;curved=0;rounded=0;" parent="1" source="OC2dcXIhTSpHi5Ehb43I-3" target="NapRjpGxGWk-yeD8tq0e-2" edge="1">
          <mxGeometry x="0.0083" y="30" relative="1" as="geometry">
            <mxPoint x="348" y="265" as="targetPoint" />
            <Array as="points">
              <mxPoint x="460" y="400" />
              <mxPoint x="438" y="420" />
              <mxPoint x="488" y="450" />
              <mxPoint x="498" y="460" />
              <mxPoint x="298" y="260" />
            </Array>
            <mxPoint as="offset" />
          </mxGeometry>
        </mxCell>
        <mxCell id="aCDmaK2JJfqGugbTNvCX-14" style="edgeStyle=orthogonalEdgeStyle;rounded=0;orthogonalLoop=1;jettySize=auto;html=1;" parent="1" source="aCDmaK2JJfqGugbTNvCX-1" target="OC2dcXIhTSpHi5Ehb43I-1" edge="1">
          <mxGeometry relative="1" as="geometry">
            <Array as="points">
              <mxPoint x="518" y="210" />
              <mxPoint x="518" y="210" />
            </Array>
          </mxGeometry>
        </mxCell>
        <UserObject label="RateRequest" id="aCDmaK2JJfqGugbTNvCX-1">
          <mxCell style="swimlane;fontStyle=0;childLayout=stackLayout;horizontal=1;startSize=26;fillColor=none;horizontalStack=0;resizeParent=1;resizeParentMax=0;resizeLast=0;collapsible=1;marginBottom=0;html=1;fontColor=#000000;" parent="1" vertex="1">
            <mxGeometry x="340" y="61" width="160" height="312" as="geometry" />
          </mxCell>
        </UserObject>
        <mxCell id="aCDmaK2JJfqGugbTNvCX-2" value="RequestID" style="text;strokeColor=none;fillColor=none;align=left;verticalAlign=top;spacingLeft=4;spacingRight=4;overflow=hidden;rotatable=0;points=[[0,0.5],[1,0.5]];portConstraint=eastwest;whiteSpace=wrap;html=1;fontColor=#000000;" parent="aCDmaK2JJfqGugbTNvCX-1" vertex="1">
          <mxGeometry y="26" width="160" height="26" as="geometry" />
        </mxCell>
        <mxCell id="aCDmaK2JJfqGugbTNvCX-3" value="ClientID" style="text;strokeColor=none;fillColor=none;align=left;verticalAlign=top;spacingLeft=4;spacingRight=4;overflow=hidden;rotatable=0;points=[[0,0.5],[1,0.5]];portConstraint=eastwest;whiteSpace=wrap;html=1;fontColor=#000000;" parent="aCDmaK2JJfqGugbTNvCX-1" vertex="1">
          <mxGeometry y="52" width="160" height="26" as="geometry" />
        </mxCell>
        <mxCell id="aCDmaK2JJfqGugbTNvCX-4" value="ChannelID" style="text;strokeColor=none;fillColor=none;align=left;verticalAlign=top;spacingLeft=4;spacingRight=4;overflow=hidden;rotatable=0;points=[[0,0.5],[1,0.5]];portConstraint=eastwest;whiteSpace=wrap;html=1;fontColor=#000000;" parent="aCDmaK2JJfqGugbTNvCX-1" vertex="1">
          <mxGeometry y="78" width="160" height="26" as="geometry" />
        </mxCell>
        <mxCell id="aCDmaK2JJfqGugbTNvCX-5" value="ProductID" style="text;strokeColor=none;fillColor=none;align=left;verticalAlign=top;spacingLeft=4;spacingRight=4;overflow=hidden;rotatable=0;points=[[0,0.5],[1,0.5]];portConstraint=eastwest;whiteSpace=wrap;html=1;fontColor=#000000;" parent="aCDmaK2JJfqGugbTNvCX-1" vertex="1">
          <mxGeometry y="104" width="160" height="26" as="geometry" />
        </mxCell>
        <mxCell id="aCDmaK2JJfqGugbTNvCX-6" value="BranchID" style="text;strokeColor=none;fillColor=none;align=left;verticalAlign=top;spacingLeft=4;spacingRight=4;overflow=hidden;rotatable=0;points=[[0,0.5],[1,0.5]];portConstraint=eastwest;whiteSpace=wrap;html=1;fontColor=#000000;" parent="aCDmaK2JJfqGugbTNvCX-1" vertex="1">
          <mxGeometry y="130" width="160" height="26" as="geometry" />
        </mxCell>
        <mxCell id="aCDmaK2JJfqGugbTNvCX-7" value="OperationDate" style="text;strokeColor=none;fillColor=none;align=left;verticalAlign=top;spacingLeft=4;spacingRight=4;overflow=hidden;rotatable=0;points=[[0,0.5],[1,0.5]];portConstraint=eastwest;whiteSpace=wrap;html=1;fontColor=#CC0000;fontStyle=2" parent="aCDmaK2JJfqGugbTNvCX-1" vertex="1">
          <mxGeometry y="156" width="160" height="26" as="geometry" />
        </mxCell>
        <mxCell id="aCDmaK2JJfqGugbTNvCX-8" value="BuyCurrency" style="text;strokeColor=none;fillColor=none;align=left;verticalAlign=top;spacingLeft=4;spacingRight=4;overflow=hidden;rotatable=0;points=[[0,0.5],[1,0.5]];portConstraint=eastwest;whiteSpace=wrap;html=1;fontColor=#000000;" parent="aCDmaK2JJfqGugbTNvCX-1" vertex="1">
          <mxGeometry y="182" width="160" height="26" as="geometry" />
        </mxCell>
        <mxCell id="aCDmaK2JJfqGugbTNvCX-9" value="SellCurrency" style="text;strokeColor=none;fillColor=none;align=left;verticalAlign=top;spacingLeft=4;spacingRight=4;overflow=hidden;rotatable=0;points=[[0,0.5],[1,0.5]];portConstraint=eastwest;whiteSpace=wrap;html=1;fontColor=#000000;" parent="aCDmaK2JJfqGugbTNvCX-1" vertex="1">
          <mxGeometry y="208" width="160" height="26" as="geometry" />
        </mxCell>
        <mxCell id="aCDmaK2JJfqGugbTNvCX-10" value="Amount" style="text;strokeColor=none;fillColor=none;align=left;verticalAlign=top;spacingLeft=4;spacingRight=4;overflow=hidden;rotatable=0;points=[[0,0.5],[1,0.5]];portConstraint=eastwest;whiteSpace=wrap;html=1;fontColor=#000000;" parent="aCDmaK2JJfqGugbTNvCX-1" vertex="1">
          <mxGeometry y="234" width="160" height="26" as="geometry" />
        </mxCell>
        <mxCell id="aCDmaK2JJfqGugbTNvCX-11" value="ExchangeType" style="text;strokeColor=none;fillColor=none;align=left;verticalAlign=top;spacingLeft=4;spacingRight=4;overflow=hidden;rotatable=0;points=[[0,0.5],[1,0.5]];portConstraint=eastwest;whiteSpace=wrap;html=1;fontColor=#000000;" parent="aCDmaK2JJfqGugbTNvCX-1" vertex="1">
          <mxGeometry y="260" width="160" height="26" as="geometry" />
        </mxCell>
        <mxCell id="aCDmaK2JJfqGugbTNvCX-12" value="RateConversionType" style="text;strokeColor=none;fillColor=none;align=left;verticalAlign=top;spacingLeft=4;spacingRight=4;overflow=hidden;rotatable=0;points=[[0,0.5],[1,0.5]];portConstraint=eastwest;whiteSpace=wrap;html=1;fontColor=#000000;" parent="aCDmaK2JJfqGugbTNvCX-1" vertex="1">
          <mxGeometry y="286" width="160" height="26" as="geometry" />
        </mxCell>
        <mxCell id="5AQyUATGyBLYDQJvDg-Q-1" value="Agreement on a preferential rate" style="text;align=center;fontStyle=1;verticalAlign=middle;spacingLeft=3;spacingRight=3;strokeColor=none;rotatable=0;points=[[0,0.5],[1,0.5]];portConstraint=eastwest;fontSize=14;" parent="1" vertex="1">
          <mxGeometry x="108" y="10" width="932" height="26" as="geometry" />
        </mxCell>
        <mxCell id="reUfo1CFChtaAdtldBo7-2" value="კლიენტის გადაწყვეტილების&lt;br&gt;დაბრუნება" style="html=1;verticalAlign=bottom;startArrow=none;endArrow=block;startSize=8;edgeStyle=elbowEdgeStyle;elbow=vertical;curved=0;rounded=0;startFill=0;" parent="1" target="reUfo1CFChtaAdtldBo7-1" edge="1">
          <mxGeometry relative="1" as="geometry">
            <mxPoint x="201" y="500" as="sourcePoint" />
            <Array as="points">
              <mxPoint x="318" y="500" />
              <mxPoint x="568" y="520" />
            </Array>
          </mxGeometry>
        </mxCell>
        <mxCell id="fu1dtIb8lkHuwp6ax8UP-1" value="B7 Conv Micro Serivice" style="shape=umlLifeline;perimeter=lifelinePerimeter;whiteSpace=wrap;html=1;container=1;collapsible=0;recursiveResize=0;outlineConnect=0;rounded=1;shadow=0;comic=0;labelBackgroundColor=none;strokeWidth=1;fontFamily=Verdana;fontSize=12;align=center;" parent="1" vertex="1">
          <mxGeometry x="960" y="80" width="160" height="1240" as="geometry" />
        </mxCell>
        <mxCell id="PGhUQlgjF5_GtO2V3m0p-3" value="" style="html=1;points=[];perimeter=orthogonalPerimeter;outlineConnect=0;targetShapes=umlLifeline;portConstraint=eastwest;newEdgeStyle={&quot;edgeStyle&quot;:&quot;elbowEdgeStyle&quot;,&quot;elbow&quot;:&quot;vertical&quot;,&quot;curved&quot;:0,&quot;rounded&quot;:0};fillColor=#CCFFFF;strokeColor=#6c8ebf;" parent="fu1dtIb8lkHuwp6ax8UP-1" vertex="1">
          <mxGeometry x="75" y="880" width="10" height="200" as="geometry" />
        </mxCell>
        <mxCell id="fu1dtIb8lkHuwp6ax8UP-3" value="" style="endArrow=classic;html=1;rounded=0;strokeColor=default;edgeStyle=orthogonalEdgeStyle;" parent="fu1dtIb8lkHuwp6ax8UP-1" edge="1">
          <mxGeometry width="50" height="50" relative="1" as="geometry">
            <mxPoint x="85" y="960" as="sourcePoint" />
            <mxPoint x="85" y="990" as="targetPoint" />
            <Array as="points">
              <mxPoint x="160" y="960" />
              <mxPoint x="160" y="990" />
            </Array>
          </mxGeometry>
        </mxCell>
        <mxCell id="fu1dtIb8lkHuwp6ax8UP-4" value="კონვერტაციის&lt;br&gt;ოპერაცია" style="edgeLabel;html=1;align=center;verticalAlign=middle;resizable=0;points=[];" parent="fu1dtIb8lkHuwp6ax8UP-3" vertex="1" connectable="0">
          <mxGeometry x="-0.23" y="1" relative="1" as="geometry">
            <mxPoint x="18" y="-8" as="offset" />
          </mxGeometry>
        </mxCell>
        <mxCell id="PGhUQlgjF5_GtO2V3m0p-5" value="კონვერტაციის&lt;br&gt;სტატუსის დაბრუნება" style="html=1;verticalAlign=bottom;endArrow=open;dashed=1;endSize=8;edgeStyle=elbowEdgeStyle;elbow=vertical;curved=0;rounded=0;entryX=1;entryY=0.5;entryDx=0;entryDy=0;" parent="1" edge="1" target="FY55GriNzga7esOsbRde-10">
          <mxGeometry x="-0.1921" y="39" relative="1" as="geometry">
            <mxPoint x="900" y="1081" as="targetPoint" />
            <Array as="points">
              <mxPoint x="1040" y="1081" />
              <mxPoint x="1120" y="1092" />
              <mxPoint x="1090" y="1082" />
              <mxPoint x="1030" y="912" />
              <mxPoint x="800" y="1082" />
              <mxPoint x="1050" y="1072" />
              <mxPoint x="810" y="812" />
              <mxPoint x="780" y="822" />
              <mxPoint x="720" y="832" />
              <mxPoint x="1080" y="866" />
              <mxPoint x="1090" y="872" />
              <mxPoint x="1040" y="877" />
              <mxPoint x="1100" y="870" />
              <mxPoint x="750" y="862" />
            </Array>
            <mxPoint as="offset" />
            <mxPoint x="1030" y="1080" as="sourcePoint" />
          </mxGeometry>
        </mxCell>
        <mxCell id="PGhUQlgjF5_GtO2V3m0p-4" value="&lt;font style=&quot;font-size: 10px;&quot;&gt;&lt;b&gt;ოპერაციის დადასტურების&lt;br&gt;შემთხვევაში&lt;/b&gt;&lt;/font&gt;" style="html=1;verticalAlign=bottom;endArrow=block;edgeStyle=elbowEdgeStyle;elbow=vertical;curved=0;rounded=0;entryX=0;entryY=0.5;entryDx=0;entryDy=0;" parent="1" target="lTMrrN4QKwK92IM0Nk2y-10" edge="1">
          <mxGeometry y="13" relative="1" as="geometry">
            <mxPoint x="200" y="663" as="sourcePoint" />
            <Array as="points">
              <mxPoint x="270" y="663" />
              <mxPoint x="280" y="637" />
              <mxPoint x="490" y="600" />
              <mxPoint x="980" y="630" />
              <mxPoint x="940" y="640" />
              <mxPoint x="1250" y="660" />
            </Array>
            <mxPoint as="offset" />
            <mxPoint x="300" y="750" as="targetPoint" />
          </mxGeometry>
        </mxCell>
        <UserObject label="ReturnOpStatus" id="PGhUQlgjF5_GtO2V3m0p-7">
          <mxCell style="swimlane;fontStyle=0;childLayout=stackLayout;horizontal=1;startSize=26;fillColor=none;horizontalStack=0;resizeParent=1;resizeParentMax=0;resizeLast=0;collapsible=1;marginBottom=0;html=1;fontColor=#000000;" parent="1" vertex="1">
            <mxGeometry x="330" y="1110" width="160" height="130" as="geometry" />
          </mxCell>
        </UserObject>
        <mxCell id="PGhUQlgjF5_GtO2V3m0p-21" value="RequestID" style="text;strokeColor=none;fillColor=none;align=left;verticalAlign=top;spacingLeft=4;spacingRight=4;overflow=hidden;rotatable=0;points=[[0,0.5],[1,0.5]];portConstraint=eastwest;whiteSpace=wrap;html=1;fontColor=#000000;" parent="PGhUQlgjF5_GtO2V3m0p-7" vertex="1">
          <mxGeometry y="26" width="160" height="26" as="geometry" />
        </mxCell>
        <mxCell id="lTMrrN4QKwK92IM0Nk2y-1" value="IsSuccess (true/false)" style="text;strokeColor=none;fillColor=none;align=left;verticalAlign=top;spacingLeft=4;spacingRight=4;overflow=hidden;rotatable=0;points=[[0,0.5],[1,0.5]];portConstraint=eastwest;whiteSpace=wrap;html=1;fontColor=#000000;" parent="PGhUQlgjF5_GtO2V3m0p-7" vertex="1">
          <mxGeometry y="52" width="160" height="26" as="geometry" />
        </mxCell>
        <mxCell id="PGhUQlgjF5_GtO2V3m0p-8" value="ErrCode?" style="text;strokeColor=none;fillColor=none;align=left;verticalAlign=top;spacingLeft=4;spacingRight=4;overflow=hidden;rotatable=0;points=[[0,0.5],[1,0.5]];portConstraint=eastwest;whiteSpace=wrap;html=1;fontColor=#000000;" parent="PGhUQlgjF5_GtO2V3m0p-7" vertex="1">
          <mxGeometry y="78" width="160" height="26" as="geometry" />
        </mxCell>
        <mxCell id="PGhUQlgjF5_GtO2V3m0p-9" value="ErrMsg?" style="text;strokeColor=none;fillColor=none;align=left;verticalAlign=top;spacingLeft=4;spacingRight=4;overflow=hidden;rotatable=0;points=[[0,0.5],[1,0.5]];portConstraint=eastwest;whiteSpace=wrap;html=1;fontColor=#000000;" parent="PGhUQlgjF5_GtO2V3m0p-7" vertex="1">
          <mxGeometry y="104" width="160" height="26" as="geometry" />
        </mxCell>
        <UserObject label="PutConvDoc" id="lTMrrN4QKwK92IM0Nk2y-3">
          <mxCell style="swimlane;fontStyle=0;childLayout=stackLayout;horizontal=1;startSize=26;fillColor=none;horizontalStack=0;resizeParent=1;resizeParentMax=0;resizeLast=0;collapsible=1;marginBottom=0;html=1;fontColor=#000000;" parent="1" vertex="1">
            <mxGeometry x="340" y="520" width="160" height="390" as="geometry" />
          </mxCell>
        </UserObject>
        <mxCell id="lTMrrN4QKwK92IM0Nk2y-4" value="RequestID" style="text;strokeColor=none;fillColor=none;align=left;verticalAlign=top;spacingLeft=4;spacingRight=4;overflow=hidden;rotatable=0;points=[[0,0.5],[1,0.5]];portConstraint=eastwest;whiteSpace=wrap;html=1;fontColor=#000000;" parent="lTMrrN4QKwK92IM0Nk2y-3" vertex="1">
          <mxGeometry y="26" width="160" height="26" as="geometry" />
        </mxCell>
        <mxCell id="lTMrrN4QKwK92IM0Nk2y-9" value="ChanelID" style="text;strokeColor=none;fillColor=none;align=left;verticalAlign=top;spacingLeft=4;spacingRight=4;overflow=hidden;rotatable=0;points=[[0,0.5],[1,0.5]];portConstraint=eastwest;whiteSpace=wrap;html=1;fontColor=#000000;" parent="lTMrrN4QKwK92IM0Nk2y-3" vertex="1">
          <mxGeometry y="52" width="160" height="26" as="geometry" />
        </mxCell>
        <mxCell id="lTMrrN4QKwK92IM0Nk2y-5" value="ClientID" style="text;strokeColor=none;fillColor=none;align=left;verticalAlign=top;spacingLeft=4;spacingRight=4;overflow=hidden;rotatable=0;points=[[0,0.5],[1,0.5]];portConstraint=eastwest;whiteSpace=wrap;html=1;fontColor=#000000;" parent="lTMrrN4QKwK92IM0Nk2y-3" vertex="1">
          <mxGeometry y="78" width="160" height="26" as="geometry" />
        </mxCell>
        <mxCell id="lTMrrN4QKwK92IM0Nk2y-20" value="OpCode" style="text;strokeColor=none;fillColor=none;align=left;verticalAlign=top;spacingLeft=4;spacingRight=4;overflow=hidden;rotatable=0;points=[[0,0.5],[1,0.5]];portConstraint=eastwest;whiteSpace=wrap;html=1;fontColor=#000000;" parent="lTMrrN4QKwK92IM0Nk2y-3" vertex="1">
          <mxGeometry y="104" width="160" height="26" as="geometry" />
        </mxCell>
        <mxCell id="lTMrrN4QKwK92IM0Nk2y-10" value="IsoDeb" style="text;strokeColor=none;fillColor=none;align=left;verticalAlign=top;spacingLeft=4;spacingRight=4;overflow=hidden;rotatable=0;points=[[0,0.5],[1,0.5]];portConstraint=eastwest;whiteSpace=wrap;html=1;fontColor=#000000;" parent="lTMrrN4QKwK92IM0Nk2y-3" vertex="1">
          <mxGeometry y="130" width="160" height="26" as="geometry" />
        </mxCell>
        <mxCell id="lTMrrN4QKwK92IM0Nk2y-11" value="IsoCred" style="text;strokeColor=none;fillColor=none;align=left;verticalAlign=top;spacingLeft=4;spacingRight=4;overflow=hidden;rotatable=0;points=[[0,0.5],[1,0.5]];portConstraint=eastwest;whiteSpace=wrap;html=1;fontColor=#000000;" parent="lTMrrN4QKwK92IM0Nk2y-3" vertex="1">
          <mxGeometry y="156" width="160" height="26" as="geometry" />
        </mxCell>
        <mxCell id="lTMrrN4QKwK92IM0Nk2y-12" value="AmountDeb" style="text;strokeColor=none;fillColor=none;align=left;verticalAlign=top;spacingLeft=4;spacingRight=4;overflow=hidden;rotatable=0;points=[[0,0.5],[1,0.5]];portConstraint=eastwest;whiteSpace=wrap;html=1;fontColor=#000000;" parent="lTMrrN4QKwK92IM0Nk2y-3" vertex="1">
          <mxGeometry y="182" width="160" height="26" as="geometry" />
        </mxCell>
        <mxCell id="lTMrrN4QKwK92IM0Nk2y-13" value="AmountCred" style="text;strokeColor=none;fillColor=none;align=left;verticalAlign=top;spacingLeft=4;spacingRight=4;overflow=hidden;rotatable=0;points=[[0,0.5],[1,0.5]];portConstraint=eastwest;whiteSpace=wrap;html=1;fontColor=#000000;" parent="lTMrrN4QKwK92IM0Nk2y-3" vertex="1">
          <mxGeometry y="208" width="160" height="26" as="geometry" />
        </mxCell>
        <mxCell id="lTMrrN4QKwK92IM0Nk2y-14" value="DebitID" style="text;strokeColor=none;fillColor=none;align=left;verticalAlign=top;spacingLeft=4;spacingRight=4;overflow=hidden;rotatable=0;points=[[0,0.5],[1,0.5]];portConstraint=eastwest;whiteSpace=wrap;html=1;fontColor=#000000;" parent="lTMrrN4QKwK92IM0Nk2y-3" vertex="1">
          <mxGeometry y="234" width="160" height="26" as="geometry" />
        </mxCell>
        <mxCell id="lTMrrN4QKwK92IM0Nk2y-15" value="CreditID" style="text;strokeColor=none;fillColor=none;align=left;verticalAlign=top;spacingLeft=4;spacingRight=4;overflow=hidden;rotatable=0;points=[[0,0.5],[1,0.5]];portConstraint=eastwest;whiteSpace=wrap;html=1;fontColor=#000000;" parent="lTMrrN4QKwK92IM0Nk2y-3" vertex="1">
          <mxGeometry y="260" width="160" height="26" as="geometry" />
        </mxCell>
        <mxCell id="lTMrrN4QKwK92IM0Nk2y-16" value="DocDate" style="text;strokeColor=none;fillColor=none;align=left;verticalAlign=top;spacingLeft=4;spacingRight=4;overflow=hidden;rotatable=0;points=[[0,0.5],[1,0.5]];portConstraint=eastwest;whiteSpace=wrap;html=1;fontColor=#000000;" parent="lTMrrN4QKwK92IM0Nk2y-3" vertex="1">
          <mxGeometry y="286" width="160" height="26" as="geometry" />
        </mxCell>
        <mxCell id="lTMrrN4QKwK92IM0Nk2y-17" value="Description" style="text;strokeColor=none;fillColor=none;align=left;verticalAlign=top;spacingLeft=4;spacingRight=4;overflow=hidden;rotatable=0;points=[[0,0.5],[1,0.5]];portConstraint=eastwest;whiteSpace=wrap;html=1;fontColor=#000000;" parent="lTMrrN4QKwK92IM0Nk2y-3" vertex="1">
          <mxGeometry y="312" width="160" height="26" as="geometry" />
        </mxCell>
        <mxCell id="lTMrrN4QKwK92IM0Nk2y-18" value="UserID" style="text;strokeColor=none;fillColor=none;align=left;verticalAlign=top;spacingLeft=4;spacingRight=4;overflow=hidden;rotatable=0;points=[[0,0.5],[1,0.5]];portConstraint=eastwest;whiteSpace=wrap;html=1;fontColor=#000000;" parent="lTMrrN4QKwK92IM0Nk2y-3" vertex="1">
          <mxGeometry y="338" width="160" height="26" as="geometry" />
        </mxCell>
        <mxCell id="lTMrrN4QKwK92IM0Nk2y-19" value="ChanelID" style="text;strokeColor=none;fillColor=none;align=left;verticalAlign=top;spacingLeft=4;spacingRight=4;overflow=hidden;rotatable=0;points=[[0,0.5],[1,0.5]];portConstraint=eastwest;whiteSpace=wrap;html=1;fontColor=#000000;" parent="lTMrrN4QKwK92IM0Nk2y-3" vertex="1">
          <mxGeometry y="364" width="160" height="26" as="geometry" />
        </mxCell>
        <mxCell id="lTMrrN4QKwK92IM0Nk2y-21" style="edgeStyle=orthogonalEdgeStyle;rounded=0;orthogonalLoop=1;jettySize=auto;html=1;exitX=1;exitY=0.5;exitDx=0;exitDy=0;" parent="1" source="lTMrrN4QKwK92IM0Nk2y-12" target="uLg5EmaOAYXGtRVUcYHG-6" edge="1">
          <mxGeometry relative="1" as="geometry">
            <Array as="points">
              <mxPoint x="600" y="715" />
              <mxPoint x="600" y="715" />
            </Array>
          </mxGeometry>
        </mxCell>
        <mxCell id="lTMrrN4QKwK92IM0Nk2y-22" style="edgeStyle=elbowEdgeStyle;rounded=0;orthogonalLoop=1;jettySize=auto;html=1;elbow=vertical;curved=0;" parent="1" source="OC2dcXIhTSpHi5Ehb43I-1" target="PGhUQlgjF5_GtO2V3m0p-3" edge="1">
          <mxGeometry relative="1" as="geometry">
            <Array as="points">
              <mxPoint x="1010" y="1020" />
              <mxPoint x="870" y="840" />
              <mxPoint x="1040" y="690" />
            </Array>
            <mxPoint x="760" y="670" as="sourcePoint" />
            <mxPoint x="980" y="1020" as="targetPoint" />
          </mxGeometry>
        </mxCell>
        <mxCell id="lTMrrN4QKwK92IM0Nk2y-23" value="კონვერტაციის ოპერაციის&lt;br&gt;გადაგზავნა" style="edgeLabel;html=1;align=center;verticalAlign=middle;resizable=0;points=[];" parent="lTMrrN4QKwK92IM0Nk2y-22" vertex="1" connectable="0">
          <mxGeometry x="-0.3882" y="-1" relative="1" as="geometry">
            <mxPoint x="-48" y="-31" as="offset" />
          </mxGeometry>
        </mxCell>
        <mxCell id="lTMrrN4QKwK92IM0Nk2y-24" style="edgeStyle=orthogonalEdgeStyle;rounded=0;orthogonalLoop=1;jettySize=auto;html=1;exitX=0;exitY=0.5;exitDx=0;exitDy=0;" parent="1" source="lTMrrN4QKwK92IM0Nk2y-1" target="NapRjpGxGWk-yeD8tq0e-2" edge="1">
          <mxGeometry relative="1" as="geometry">
            <mxPoint x="240" y="1200" as="targetPoint" />
            <Array as="points">
              <mxPoint x="330" y="1200" />
            </Array>
          </mxGeometry>
        </mxCell>
        <mxCell id="lTMrrN4QKwK92IM0Nk2y-25" style="edgeStyle=elbowEdgeStyle;rounded=0;orthogonalLoop=1;jettySize=auto;html=1;elbow=vertical;curved=0;" parent="1" source="uLg5EmaOAYXGtRVUcYHG-6" edge="1">
          <mxGeometry relative="1" as="geometry">
            <mxPoint x="620" y="660" as="sourcePoint" />
            <mxPoint x="490" y="1200" as="targetPoint" />
            <Array as="points">
              <mxPoint x="550" y="1200" />
              <mxPoint x="570" y="1200" />
              <mxPoint x="560" y="1220" />
              <mxPoint x="560" y="1160" />
              <mxPoint x="557" y="1180" />
            </Array>
          </mxGeometry>
        </mxCell>
        <UserObject label="ReturnConversiosStatus" id="FY55GriNzga7esOsbRde-9">
          <mxCell style="swimlane;fontStyle=0;childLayout=stackLayout;horizontal=1;startSize=26;fillColor=none;horizontalStack=0;resizeParent=1;resizeParentMax=0;resizeLast=0;collapsible=1;marginBottom=0;html=1;fontColor=#000000;" parent="1" vertex="1">
            <mxGeometry x="730" y="1042" width="160" height="78" as="geometry" />
          </mxCell>
        </UserObject>
        <mxCell id="FY55GriNzga7esOsbRde-10" value="REC_ID" style="text;strokeColor=none;fillColor=none;align=left;verticalAlign=top;spacingLeft=4;spacingRight=4;overflow=hidden;rotatable=0;points=[[0,0.5],[1,0.5]];portConstraint=eastwest;whiteSpace=wrap;html=1;fontColor=#000000;" parent="FY55GriNzga7esOsbRde-9" vertex="1">
          <mxGeometry y="26" width="160" height="26" as="geometry" />
        </mxCell>
        <mxCell id="FY55GriNzga7esOsbRde-11" value="REC_STATE" style="text;strokeColor=none;fillColor=none;align=left;verticalAlign=top;spacingLeft=4;spacingRight=4;overflow=hidden;rotatable=0;points=[[0,0.5],[1,0.5]];portConstraint=eastwest;whiteSpace=wrap;html=1;fontColor=#000000;" parent="FY55GriNzga7esOsbRde-9" vertex="1">
          <mxGeometry y="52" width="160" height="26" as="geometry" />
        </mxCell>
        <mxCell id="FY55GriNzga7esOsbRde-12" style="edgeStyle=orthogonalEdgeStyle;rounded=0;orthogonalLoop=1;jettySize=auto;html=1;" parent="1" source="FY55GriNzga7esOsbRde-10" edge="1">
          <mxGeometry relative="1" as="geometry">
            <mxPoint x="633" y="1082" as="targetPoint" />
            <Array as="points">
              <mxPoint x="710" y="1082" />
              <mxPoint x="710" y="1082" />
            </Array>
          </mxGeometry>
        </mxCell>
        <mxCell id="uLg5EmaOAYXGtRVUcYHG-6" value="" style="html=1;points=[];perimeter=orthogonalPerimeter;outlineConnect=0;targetShapes=umlLifeline;portConstraint=eastwest;newEdgeStyle={&quot;edgeStyle&quot;:&quot;elbowEdgeStyle&quot;,&quot;elbow&quot;:&quot;vertical&quot;,&quot;curved&quot;:0,&quot;rounded&quot;:0};fillColor=#CCFFFF;" vertex="1" parent="1">
          <mxGeometry x="623" y="630" width="10" height="650" as="geometry" />
        </mxCell>
        <mxCell id="uLg5EmaOAYXGtRVUcYHG-7" value="" style="endArrow=classic;html=1;rounded=0;strokeColor=default;edgeStyle=orthogonalEdgeStyle;exitX=0.2;exitY=0.153;exitDx=0;exitDy=0;exitPerimeter=0;" edge="1" parent="1">
          <mxGeometry width="50" height="50" relative="1" as="geometry">
            <mxPoint x="188" y="560" as="sourcePoint" />
            <mxPoint x="190.5" y="581.15" as="targetPoint" />
            <Array as="points">
              <mxPoint x="80" y="560" />
              <mxPoint x="80" y="581" />
            </Array>
          </mxGeometry>
        </mxCell>
        <mxCell id="uLg5EmaOAYXGtRVUcYHG-8" value="კლიენტის საბოლოო&lt;br&gt;ავტორიზაცია" style="edgeLabel;html=1;align=center;verticalAlign=middle;resizable=0;points=[];" vertex="1" connectable="0" parent="uLg5EmaOAYXGtRVUcYHG-7">
          <mxGeometry x="-0.23" y="1" relative="1" as="geometry">
            <mxPoint x="18" y="-8" as="offset" />
          </mxGeometry>
        </mxCell>
      </root>
    </mxGraphModel>
  </diagram>
  <diagram id="zn_LCZw_xu-HkTTggI_8" name="შეღავთიანი კურსზე სიტყვიერი შეთანხმება SD">
    <mxGraphModel dx="1632" dy="824" grid="1" gridSize="10" guides="1" tooltips="1" connect="1" arrows="1" fold="1" page="1" pageScale="1" pageWidth="2336" pageHeight="1654" math="0" shadow="0">
      <root>
        <mxCell id="0" />
        <mxCell id="1" parent="0" />
        <mxCell id="NMGzmj7_dPsPPjgjZv2B-1" value="ბიზნეს ინტერნეტ ბანკი" style="shape=umlLifeline;perimeter=lifelinePerimeter;whiteSpace=wrap;html=1;container=1;collapsible=0;recursiveResize=0;outlineConnect=0;rounded=1;shadow=0;comic=0;labelBackgroundColor=none;strokeWidth=1;fontFamily=Verdana;fontSize=12;align=center;" parent="1" vertex="1">
          <mxGeometry x="108" y="80" width="175" height="1120" as="geometry" />
        </mxCell>
        <mxCell id="NMGzmj7_dPsPPjgjZv2B-2" value="" style="html=1;points=[];perimeter=orthogonalPerimeter;rounded=0;shadow=0;comic=0;labelBackgroundColor=none;strokeWidth=1;fontFamily=Verdana;fontSize=12;align=center;fillColor=#CCFFFF;" parent="NMGzmj7_dPsPPjgjZv2B-1" vertex="1">
          <mxGeometry x="82.5" y="80" width="10" height="1000" as="geometry" />
        </mxCell>
        <mxCell id="NMGzmj7_dPsPPjgjZv2B-3" value="" style="endArrow=classic;html=1;rounded=0;strokeColor=default;edgeStyle=orthogonalEdgeStyle;exitX=0.2;exitY=0.153;exitDx=0;exitDy=0;exitPerimeter=0;" parent="NMGzmj7_dPsPPjgjZv2B-1" edge="1">
          <mxGeometry width="50" height="50" relative="1" as="geometry">
            <mxPoint x="80" y="290" as="sourcePoint" />
            <mxPoint x="82.5" y="311.15" as="targetPoint" />
            <Array as="points">
              <mxPoint x="-28" y="290" />
              <mxPoint x="-28" y="311" />
            </Array>
          </mxGeometry>
        </mxCell>
        <mxCell id="NMGzmj7_dPsPPjgjZv2B-4" value="მოთხოვნის ID -ის&lt;br&gt;ფორმირება" style="edgeLabel;html=1;align=center;verticalAlign=middle;resizable=0;points=[];" parent="NMGzmj7_dPsPPjgjZv2B-3" vertex="1" connectable="0">
          <mxGeometry x="-0.23" y="1" relative="1" as="geometry">
            <mxPoint x="18" y="-16" as="offset" />
          </mxGeometry>
        </mxCell>
        <mxCell id="NMGzmj7_dPsPPjgjZv2B-5" value="" style="endArrow=classic;html=1;rounded=0;strokeColor=default;edgeStyle=orthogonalEdgeStyle;exitX=0.2;exitY=0.153;exitDx=0;exitDy=0;exitPerimeter=0;" parent="NMGzmj7_dPsPPjgjZv2B-1" edge="1">
          <mxGeometry width="50" height="50" relative="1" as="geometry">
            <mxPoint x="80" y="220" as="sourcePoint" />
            <mxPoint x="82.5" y="241.14999999999998" as="targetPoint" />
            <Array as="points">
              <mxPoint x="-28" y="220" />
              <mxPoint x="-28" y="241" />
            </Array>
          </mxGeometry>
        </mxCell>
        <mxCell id="NMGzmj7_dPsPPjgjZv2B-6" value="კლიენტის მხრიდან&lt;br&gt;გადაწყვეტილების მიღება" style="edgeLabel;html=1;align=center;verticalAlign=middle;resizable=0;points=[];" parent="NMGzmj7_dPsPPjgjZv2B-5" vertex="1" connectable="0">
          <mxGeometry x="-0.23" y="1" relative="1" as="geometry">
            <mxPoint x="18" y="-8" as="offset" />
          </mxGeometry>
        </mxCell>
        <mxCell id="NMGzmj7_dPsPPjgjZv2B-7" value="" style="endArrow=classic;html=1;rounded=0;strokeColor=default;edgeStyle=orthogonalEdgeStyle;exitX=0.2;exitY=0.153;exitDx=0;exitDy=0;exitPerimeter=0;" parent="NMGzmj7_dPsPPjgjZv2B-1" edge="1">
          <mxGeometry width="50" height="50" relative="1" as="geometry">
            <mxPoint x="80" y="1040" as="sourcePoint" />
            <mxPoint x="82.5" y="1061.15" as="targetPoint" />
            <Array as="points">
              <mxPoint x="-28" y="1040" />
              <mxPoint x="-28" y="1061" />
            </Array>
          </mxGeometry>
        </mxCell>
        <mxCell id="NMGzmj7_dPsPPjgjZv2B-8" value="კლიენტისთვის&lt;br&gt;ოპერაციის სტატუსის&lt;br&gt;გამოტანა" style="edgeLabel;html=1;align=center;verticalAlign=middle;resizable=0;points=[];" parent="NMGzmj7_dPsPPjgjZv2B-7" vertex="1" connectable="0">
          <mxGeometry x="-0.23" y="1" relative="1" as="geometry">
            <mxPoint x="12" y="-17" as="offset" />
          </mxGeometry>
        </mxCell>
        <mxCell id="a18GJBggVhRiavYDE1Bf-1" value="" style="endArrow=classic;html=1;rounded=0;strokeColor=default;edgeStyle=orthogonalEdgeStyle;exitX=0.2;exitY=0.153;exitDx=0;exitDy=0;exitPerimeter=0;" edge="1" parent="NMGzmj7_dPsPPjgjZv2B-1">
          <mxGeometry width="50" height="50" relative="1" as="geometry">
            <mxPoint x="80" y="370" as="sourcePoint" />
            <mxPoint x="82.5" y="391.15" as="targetPoint" />
            <Array as="points">
              <mxPoint x="-28" y="370" />
              <mxPoint x="-28" y="391" />
            </Array>
          </mxGeometry>
        </mxCell>
        <mxCell id="a18GJBggVhRiavYDE1Bf-2" value="კლიენტის საბოლოო&lt;br&gt;ავტორიზაცია" style="edgeLabel;html=1;align=center;verticalAlign=middle;resizable=0;points=[];" vertex="1" connectable="0" parent="a18GJBggVhRiavYDE1Bf-1">
          <mxGeometry x="-0.23" y="1" relative="1" as="geometry">
            <mxPoint x="18" y="-8" as="offset" />
          </mxGeometry>
        </mxCell>
        <mxCell id="NMGzmj7_dPsPPjgjZv2B-9" value="TPS.Operational.Api" style="shape=umlLifeline;perimeter=lifelinePerimeter;whiteSpace=wrap;html=1;container=1;collapsible=0;recursiveResize=0;outlineConnect=0;rounded=1;shadow=0;comic=0;labelBackgroundColor=none;strokeWidth=1;fontFamily=Verdana;fontSize=12;align=center;" parent="1" vertex="1">
          <mxGeometry x="548" y="80" width="160" height="1120" as="geometry" />
        </mxCell>
        <mxCell id="NMGzmj7_dPsPPjgjZv2B-10" value="" style="html=1;points=[];perimeter=orthogonalPerimeter;outlineConnect=0;targetShapes=umlLifeline;portConstraint=eastwest;newEdgeStyle={&quot;edgeStyle&quot;:&quot;elbowEdgeStyle&quot;,&quot;elbow&quot;:&quot;vertical&quot;,&quot;curved&quot;:0,&quot;rounded&quot;:0};fillColor=#CCFFFF;" parent="NMGzmj7_dPsPPjgjZv2B-9" vertex="1">
          <mxGeometry x="75" y="80" width="10" height="160" as="geometry" />
        </mxCell>
        <mxCell id="NMGzmj7_dPsPPjgjZv2B-11" value="" style="html=1;points=[];perimeter=orthogonalPerimeter;outlineConnect=0;targetShapes=umlLifeline;portConstraint=eastwest;newEdgeStyle={&quot;edgeStyle&quot;:&quot;elbowEdgeStyle&quot;,&quot;elbow&quot;:&quot;vertical&quot;,&quot;curved&quot;:0,&quot;rounded&quot;:0};fillColor=#CCFFFF;" parent="NMGzmj7_dPsPPjgjZv2B-9" vertex="1">
          <mxGeometry x="75" y="280" width="10" height="800" as="geometry" />
        </mxCell>
        <mxCell id="NMGzmj7_dPsPPjgjZv2B-38" value="" style="endArrow=classic;html=1;rounded=0;strokeColor=default;edgeStyle=orthogonalEdgeStyle;" parent="NMGzmj7_dPsPPjgjZv2B-9" edge="1">
          <mxGeometry width="50" height="50" relative="1" as="geometry">
            <mxPoint x="85" y="100" as="sourcePoint" />
            <mxPoint x="85" y="130" as="targetPoint" />
            <Array as="points">
              <mxPoint x="172" y="100" />
              <mxPoint x="172" y="130" />
            </Array>
          </mxGeometry>
        </mxCell>
        <mxCell id="NMGzmj7_dPsPPjgjZv2B-39" value="კურსის შეთანხმება&lt;br&gt;კლიენტთან" style="edgeLabel;html=1;align=center;verticalAlign=middle;resizable=0;points=[];" parent="NMGzmj7_dPsPPjgjZv2B-38" vertex="1" connectable="0">
          <mxGeometry x="-0.23" y="1" relative="1" as="geometry">
            <mxPoint x="18" y="-8" as="offset" />
          </mxGeometry>
        </mxCell>
        <mxCell id="NMGzmj7_dPsPPjgjZv2B-15" value="" style="endArrow=classic;html=1;rounded=0;strokeColor=default;edgeStyle=orthogonalEdgeStyle;" parent="NMGzmj7_dPsPPjgjZv2B-9" edge="1">
          <mxGeometry width="50" height="50" relative="1" as="geometry">
            <mxPoint x="85" y="600" as="sourcePoint" />
            <mxPoint x="85" y="630" as="targetPoint" />
            <Array as="points">
              <mxPoint x="170" y="600.5" />
              <mxPoint x="170" y="630.5" />
            </Array>
          </mxGeometry>
        </mxCell>
        <mxCell id="NMGzmj7_dPsPPjgjZv2B-16" value="გარიგების სტატუსის&lt;br&gt;ცვლილება" style="edgeLabel;html=1;align=center;verticalAlign=middle;resizable=0;points=[];" parent="NMGzmj7_dPsPPjgjZv2B-15" vertex="1" connectable="0">
          <mxGeometry x="-0.23" y="1" relative="1" as="geometry">
            <mxPoint x="18" y="-8" as="offset" />
          </mxGeometry>
        </mxCell>
        <mxCell id="79l-TfuWoo2jlcZSOs_t-1" value="" style="endArrow=classic;html=1;rounded=0;strokeColor=default;edgeStyle=orthogonalEdgeStyle;" edge="1" parent="NMGzmj7_dPsPPjgjZv2B-9">
          <mxGeometry width="50" height="50" relative="1" as="geometry">
            <mxPoint x="85" y="480" as="sourcePoint" />
            <mxPoint x="85" y="510" as="targetPoint" />
            <Array as="points">
              <mxPoint x="170" y="480.5" />
              <mxPoint x="170" y="510.5" />
            </Array>
          </mxGeometry>
        </mxCell>
        <mxCell id="79l-TfuWoo2jlcZSOs_t-2" value="გარიგების ჩანაწერის&lt;br&gt;შექმნა" style="edgeLabel;html=1;align=center;verticalAlign=middle;resizable=0;points=[];" vertex="1" connectable="0" parent="79l-TfuWoo2jlcZSOs_t-1">
          <mxGeometry x="-0.23" y="1" relative="1" as="geometry">
            <mxPoint x="18" y="-8" as="offset" />
          </mxGeometry>
        </mxCell>
        <mxCell id="P2EWak1eFvS_Cs6u5XGn-1" value="" style="endArrow=classic;html=1;rounded=0;strokeColor=default;edgeStyle=orthogonalEdgeStyle;" edge="1" parent="NMGzmj7_dPsPPjgjZv2B-9">
          <mxGeometry width="50" height="50" relative="1" as="geometry">
            <mxPoint x="85" y="940" as="sourcePoint" />
            <mxPoint x="85" y="970" as="targetPoint" />
            <Array as="points">
              <mxPoint x="170" y="940.5" />
              <mxPoint x="170" y="970.5" />
            </Array>
          </mxGeometry>
        </mxCell>
        <mxCell id="P2EWak1eFvS_Cs6u5XGn-2" value="გარიგების სტატუსის&lt;br&gt;ცვლილება" style="edgeLabel;html=1;align=center;verticalAlign=middle;resizable=0;points=[];" vertex="1" connectable="0" parent="P2EWak1eFvS_Cs6u5XGn-1">
          <mxGeometry x="-0.23" y="1" relative="1" as="geometry">
            <mxPoint x="18" y="-8" as="offset" />
          </mxGeometry>
        </mxCell>
        <UserObject label="RateRequest" id="NMGzmj7_dPsPPjgjZv2B-20">
          <mxCell style="swimlane;fontStyle=0;childLayout=stackLayout;horizontal=1;startSize=26;fillColor=none;horizontalStack=0;resizeParent=1;resizeParentMax=0;resizeLast=0;collapsible=1;marginBottom=0;html=1;fontColor=#000000;" parent="1" vertex="1">
            <mxGeometry x="340" y="61" width="160" height="260" as="geometry" />
          </mxCell>
        </UserObject>
        <mxCell id="NMGzmj7_dPsPPjgjZv2B-22" value="ClientID" style="text;strokeColor=none;fillColor=none;align=left;verticalAlign=top;spacingLeft=4;spacingRight=4;overflow=hidden;rotatable=0;points=[[0,0.5],[1,0.5]];portConstraint=eastwest;whiteSpace=wrap;html=1;fontColor=#000000;" parent="NMGzmj7_dPsPPjgjZv2B-20" vertex="1">
          <mxGeometry y="26" width="160" height="26" as="geometry" />
        </mxCell>
        <mxCell id="NMGzmj7_dPsPPjgjZv2B-25" value="BranchID" style="text;strokeColor=none;fillColor=none;align=left;verticalAlign=top;spacingLeft=4;spacingRight=4;overflow=hidden;rotatable=0;points=[[0,0.5],[1,0.5]];portConstraint=eastwest;whiteSpace=wrap;html=1;fontColor=#000000;" parent="NMGzmj7_dPsPPjgjZv2B-20" vertex="1">
          <mxGeometry y="52" width="160" height="26" as="geometry" />
        </mxCell>
        <mxCell id="NMGzmj7_dPsPPjgjZv2B-26" value="OperationDate" style="text;strokeColor=none;fillColor=none;align=left;verticalAlign=top;spacingLeft=4;spacingRight=4;overflow=hidden;rotatable=0;points=[[0,0.5],[1,0.5]];portConstraint=eastwest;whiteSpace=wrap;html=1;fontColor=#CC0000;fontStyle=2" parent="NMGzmj7_dPsPPjgjZv2B-20" vertex="1">
          <mxGeometry y="78" width="160" height="26" as="geometry" />
        </mxCell>
        <mxCell id="NMGzmj7_dPsPPjgjZv2B-27" value="BuyCurrency" style="text;strokeColor=none;fillColor=none;align=left;verticalAlign=top;spacingLeft=4;spacingRight=4;overflow=hidden;rotatable=0;points=[[0,0.5],[1,0.5]];portConstraint=eastwest;whiteSpace=wrap;html=1;fontColor=#000000;" parent="NMGzmj7_dPsPPjgjZv2B-20" vertex="1">
          <mxGeometry y="104" width="160" height="26" as="geometry" />
        </mxCell>
        <mxCell id="NMGzmj7_dPsPPjgjZv2B-28" value="SellCurrency" style="text;strokeColor=none;fillColor=none;align=left;verticalAlign=top;spacingLeft=4;spacingRight=4;overflow=hidden;rotatable=0;points=[[0,0.5],[1,0.5]];portConstraint=eastwest;whiteSpace=wrap;html=1;fontColor=#000000;" parent="NMGzmj7_dPsPPjgjZv2B-20" vertex="1">
          <mxGeometry y="130" width="160" height="26" as="geometry" />
        </mxCell>
        <mxCell id="NMGzmj7_dPsPPjgjZv2B-29" value="Amount" style="text;strokeColor=none;fillColor=none;align=left;verticalAlign=top;spacingLeft=4;spacingRight=4;overflow=hidden;rotatable=0;points=[[0,0.5],[1,0.5]];portConstraint=eastwest;whiteSpace=wrap;html=1;fontColor=#000000;" parent="NMGzmj7_dPsPPjgjZv2B-20" vertex="1">
          <mxGeometry y="156" width="160" height="26" as="geometry" />
        </mxCell>
        <mxCell id="NMGzmj7_dPsPPjgjZv2B-30" value="ExchangeType" style="text;strokeColor=none;fillColor=none;align=left;verticalAlign=top;spacingLeft=4;spacingRight=4;overflow=hidden;rotatable=0;points=[[0,0.5],[1,0.5]];portConstraint=eastwest;whiteSpace=wrap;html=1;fontColor=#000000;" parent="NMGzmj7_dPsPPjgjZv2B-20" vertex="1">
          <mxGeometry y="182" width="160" height="26" as="geometry" />
        </mxCell>
        <mxCell id="B3F89zoEBVFKYEaMqbQm-2" value="RateConversionType" style="text;strokeColor=none;fillColor=none;align=left;verticalAlign=top;spacingLeft=4;spacingRight=4;overflow=hidden;rotatable=0;points=[[0,0.5],[1,0.5]];portConstraint=eastwest;whiteSpace=wrap;html=1;fontColor=#000000;" parent="NMGzmj7_dPsPPjgjZv2B-20" vertex="1">
          <mxGeometry y="208" width="160" height="26" as="geometry" />
        </mxCell>
        <mxCell id="NMGzmj7_dPsPPjgjZv2B-31" value="AgreementDateTime" style="text;strokeColor=none;fillColor=none;align=left;verticalAlign=top;spacingLeft=4;spacingRight=4;overflow=hidden;rotatable=0;points=[[0,0.5],[1,0.5]];portConstraint=eastwest;whiteSpace=wrap;html=1;fontColor=#660000;fontStyle=2" parent="NMGzmj7_dPsPPjgjZv2B-20" vertex="1">
          <mxGeometry y="234" width="160" height="26" as="geometry" />
        </mxCell>
        <mxCell id="NMGzmj7_dPsPPjgjZv2B-32" value="Agreement on a preferential rate" style="text;align=center;fontStyle=1;verticalAlign=middle;spacingLeft=3;spacingRight=3;strokeColor=none;rotatable=0;points=[[0,0.5],[1,0.5]];portConstraint=eastwest;fontSize=14;" parent="1" vertex="1">
          <mxGeometry x="108" y="10" width="932" height="26" as="geometry" />
        </mxCell>
        <mxCell id="NMGzmj7_dPsPPjgjZv2B-40" value="B7 Conv Micro Serivice" style="shape=umlLifeline;perimeter=lifelinePerimeter;whiteSpace=wrap;html=1;container=1;collapsible=0;recursiveResize=0;outlineConnect=0;rounded=1;shadow=0;comic=0;labelBackgroundColor=none;strokeWidth=1;fontFamily=Verdana;fontSize=12;align=center;" parent="1" vertex="1">
          <mxGeometry x="960" y="80" width="160" height="1120" as="geometry" />
        </mxCell>
        <mxCell id="NMGzmj7_dPsPPjgjZv2B-41" value="" style="html=1;points=[];perimeter=orthogonalPerimeter;outlineConnect=0;targetShapes=umlLifeline;portConstraint=eastwest;newEdgeStyle={&quot;edgeStyle&quot;:&quot;elbowEdgeStyle&quot;,&quot;elbow&quot;:&quot;vertical&quot;,&quot;curved&quot;:0,&quot;rounded&quot;:0};fillColor=#CCFFFF;strokeColor=#6c8ebf;" parent="NMGzmj7_dPsPPjgjZv2B-40" vertex="1">
          <mxGeometry x="75" y="720" width="10" height="360" as="geometry" />
        </mxCell>
        <mxCell id="NMGzmj7_dPsPPjgjZv2B-42" value="" style="endArrow=classic;html=1;rounded=0;strokeColor=default;edgeStyle=orthogonalEdgeStyle;" parent="NMGzmj7_dPsPPjgjZv2B-40" edge="1">
          <mxGeometry width="50" height="50" relative="1" as="geometry">
            <mxPoint x="85" y="760" as="sourcePoint" />
            <mxPoint x="85" y="790" as="targetPoint" />
            <Array as="points">
              <mxPoint x="160" y="760" />
              <mxPoint x="160" y="790" />
            </Array>
          </mxGeometry>
        </mxCell>
        <mxCell id="NMGzmj7_dPsPPjgjZv2B-43" value="კონვერტაციის&lt;br&gt;ოპერაცია" style="edgeLabel;html=1;align=center;verticalAlign=middle;resizable=0;points=[];" parent="NMGzmj7_dPsPPjgjZv2B-42" vertex="1" connectable="0">
          <mxGeometry x="-0.23" y="1" relative="1" as="geometry">
            <mxPoint x="18" y="-8" as="offset" />
          </mxGeometry>
        </mxCell>
        <mxCell id="NMGzmj7_dPsPPjgjZv2B-44" value="კონვერტაციის&lt;br&gt;სტატუსის დაბრუნება" style="html=1;verticalAlign=bottom;endArrow=open;dashed=1;endSize=8;edgeStyle=elbowEdgeStyle;elbow=vertical;curved=0;rounded=0;entryX=1.016;entryY=0.91;entryDx=0;entryDy=0;entryPerimeter=0;" parent="NMGzmj7_dPsPPjgjZv2B-40" target="NMGzmj7_dPsPPjgjZv2B-72" edge="1">
          <mxGeometry x="-0.4756" y="-9" relative="1" as="geometry">
            <mxPoint x="-290" y="910" as="targetPoint" />
            <Array as="points">
              <mxPoint x="20" y="870" />
              <mxPoint x="-284.5" y="900" />
              <mxPoint x="-84.5" y="911" />
              <mxPoint x="-114.5" y="901" />
              <mxPoint x="-174.5" y="731" />
              <mxPoint x="-404.5" y="901" />
              <mxPoint x="-154.5" y="891" />
              <mxPoint x="-394.5" y="631" />
              <mxPoint x="-424.5" y="641" />
              <mxPoint x="-484.5" y="651" />
              <mxPoint x="-124.5" y="685" />
              <mxPoint x="-114.5" y="691" />
              <mxPoint x="-164.5" y="696" />
              <mxPoint x="-104.5" y="689" />
              <mxPoint x="-454.5" y="681" />
            </Array>
            <mxPoint x="1" as="offset" />
            <mxPoint x="75" y="900" as="sourcePoint" />
          </mxGeometry>
        </mxCell>
        <mxCell id="NMGzmj7_dPsPPjgjZv2B-45" value="&lt;font style=&quot;font-size: 10px;&quot;&gt;&lt;b&gt;ოპერაციის ავტორიზაციის&lt;br&gt;შემთხვევაში&lt;/b&gt;&lt;/font&gt;" style="html=1;verticalAlign=bottom;endArrow=block;edgeStyle=elbowEdgeStyle;elbow=vertical;curved=0;rounded=0;entryX=0;entryY=0.5;entryDx=0;entryDy=0;" parent="1" target="NMGzmj7_dPsPPjgjZv2B-56" edge="1">
          <mxGeometry x="0.5172" y="13" relative="1" as="geometry">
            <mxPoint x="200" y="663" as="sourcePoint" />
            <Array as="points">
              <mxPoint x="240" y="513" />
              <mxPoint x="270" y="663" />
              <mxPoint x="280" y="637" />
              <mxPoint x="490" y="600" />
              <mxPoint x="980" y="630" />
              <mxPoint x="940" y="640" />
              <mxPoint x="1250" y="660" />
            </Array>
            <mxPoint as="offset" />
            <mxPoint x="300" y="750" as="targetPoint" />
          </mxGeometry>
        </mxCell>
        <UserObject label="ReturnOpStatus" id="NMGzmj7_dPsPPjgjZv2B-46">
          <mxCell style="swimlane;fontStyle=0;childLayout=stackLayout;horizontal=1;startSize=26;fillColor=none;horizontalStack=0;resizeParent=1;resizeParentMax=0;resizeLast=0;collapsible=1;marginBottom=0;html=1;fontColor=#000000;" parent="1" vertex="1">
            <mxGeometry x="334" y="1030" width="160" height="130" as="geometry" />
          </mxCell>
        </UserObject>
        <mxCell id="NMGzmj7_dPsPPjgjZv2B-47" value="RequestID" style="text;strokeColor=none;fillColor=none;align=left;verticalAlign=top;spacingLeft=4;spacingRight=4;overflow=hidden;rotatable=0;points=[[0,0.5],[1,0.5]];portConstraint=eastwest;whiteSpace=wrap;html=1;fontColor=#000000;" parent="NMGzmj7_dPsPPjgjZv2B-46" vertex="1">
          <mxGeometry y="26" width="160" height="26" as="geometry" />
        </mxCell>
        <mxCell id="NMGzmj7_dPsPPjgjZv2B-48" value="IsSuccess (true/false)" style="text;strokeColor=none;fillColor=none;align=left;verticalAlign=top;spacingLeft=4;spacingRight=4;overflow=hidden;rotatable=0;points=[[0,0.5],[1,0.5]];portConstraint=eastwest;whiteSpace=wrap;html=1;fontColor=#000000;" parent="NMGzmj7_dPsPPjgjZv2B-46" vertex="1">
          <mxGeometry y="52" width="160" height="26" as="geometry" />
        </mxCell>
        <mxCell id="NMGzmj7_dPsPPjgjZv2B-49" value="ErrCode?" style="text;strokeColor=none;fillColor=none;align=left;verticalAlign=top;spacingLeft=4;spacingRight=4;overflow=hidden;rotatable=0;points=[[0,0.5],[1,0.5]];portConstraint=eastwest;whiteSpace=wrap;html=1;fontColor=#000000;" parent="NMGzmj7_dPsPPjgjZv2B-46" vertex="1">
          <mxGeometry y="78" width="160" height="26" as="geometry" />
        </mxCell>
        <mxCell id="NMGzmj7_dPsPPjgjZv2B-50" value="ErrMsg?" style="text;strokeColor=none;fillColor=none;align=left;verticalAlign=top;spacingLeft=4;spacingRight=4;overflow=hidden;rotatable=0;points=[[0,0.5],[1,0.5]];portConstraint=eastwest;whiteSpace=wrap;html=1;fontColor=#000000;" parent="NMGzmj7_dPsPPjgjZv2B-46" vertex="1">
          <mxGeometry y="104" width="160" height="26" as="geometry" />
        </mxCell>
        <UserObject label="PutConvDoc" id="NMGzmj7_dPsPPjgjZv2B-51">
          <mxCell style="swimlane;fontStyle=0;childLayout=stackLayout;horizontal=1;startSize=26;fillColor=none;horizontalStack=0;resizeParent=1;resizeParentMax=0;resizeLast=0;collapsible=1;marginBottom=0;html=1;fontColor=#000000;" parent="1" vertex="1">
            <mxGeometry x="340" y="370" width="160" height="390" as="geometry" />
          </mxCell>
        </UserObject>
        <mxCell id="NMGzmj7_dPsPPjgjZv2B-52" value="RequestID" style="text;strokeColor=none;fillColor=none;align=left;verticalAlign=top;spacingLeft=4;spacingRight=4;overflow=hidden;rotatable=0;points=[[0,0.5],[1,0.5]];portConstraint=eastwest;whiteSpace=wrap;html=1;fontColor=#000000;" parent="NMGzmj7_dPsPPjgjZv2B-51" vertex="1">
          <mxGeometry y="26" width="160" height="26" as="geometry" />
        </mxCell>
        <mxCell id="NMGzmj7_dPsPPjgjZv2B-53" value="ChanelID" style="text;strokeColor=none;fillColor=none;align=left;verticalAlign=top;spacingLeft=4;spacingRight=4;overflow=hidden;rotatable=0;points=[[0,0.5],[1,0.5]];portConstraint=eastwest;whiteSpace=wrap;html=1;fontColor=#000000;" parent="NMGzmj7_dPsPPjgjZv2B-51" vertex="1">
          <mxGeometry y="52" width="160" height="26" as="geometry" />
        </mxCell>
        <mxCell id="NMGzmj7_dPsPPjgjZv2B-54" value="ClientID" style="text;strokeColor=none;fillColor=none;align=left;verticalAlign=top;spacingLeft=4;spacingRight=4;overflow=hidden;rotatable=0;points=[[0,0.5],[1,0.5]];portConstraint=eastwest;whiteSpace=wrap;html=1;fontColor=#000000;" parent="NMGzmj7_dPsPPjgjZv2B-51" vertex="1">
          <mxGeometry y="78" width="160" height="26" as="geometry" />
        </mxCell>
        <mxCell id="NMGzmj7_dPsPPjgjZv2B-55" value="OpCode" style="text;strokeColor=none;fillColor=none;align=left;verticalAlign=top;spacingLeft=4;spacingRight=4;overflow=hidden;rotatable=0;points=[[0,0.5],[1,0.5]];portConstraint=eastwest;whiteSpace=wrap;html=1;fontColor=#000000;" parent="NMGzmj7_dPsPPjgjZv2B-51" vertex="1">
          <mxGeometry y="104" width="160" height="26" as="geometry" />
        </mxCell>
        <mxCell id="NMGzmj7_dPsPPjgjZv2B-56" value="IsoDeb" style="text;strokeColor=none;fillColor=none;align=left;verticalAlign=top;spacingLeft=4;spacingRight=4;overflow=hidden;rotatable=0;points=[[0,0.5],[1,0.5]];portConstraint=eastwest;whiteSpace=wrap;html=1;fontColor=#000000;" parent="NMGzmj7_dPsPPjgjZv2B-51" vertex="1">
          <mxGeometry y="130" width="160" height="26" as="geometry" />
        </mxCell>
        <mxCell id="NMGzmj7_dPsPPjgjZv2B-57" value="IsoCred" style="text;strokeColor=none;fillColor=none;align=left;verticalAlign=top;spacingLeft=4;spacingRight=4;overflow=hidden;rotatable=0;points=[[0,0.5],[1,0.5]];portConstraint=eastwest;whiteSpace=wrap;html=1;fontColor=#000000;" parent="NMGzmj7_dPsPPjgjZv2B-51" vertex="1">
          <mxGeometry y="156" width="160" height="26" as="geometry" />
        </mxCell>
        <mxCell id="NMGzmj7_dPsPPjgjZv2B-58" value="AmountDeb" style="text;strokeColor=none;fillColor=none;align=left;verticalAlign=top;spacingLeft=4;spacingRight=4;overflow=hidden;rotatable=0;points=[[0,0.5],[1,0.5]];portConstraint=eastwest;whiteSpace=wrap;html=1;fontColor=#000000;" parent="NMGzmj7_dPsPPjgjZv2B-51" vertex="1">
          <mxGeometry y="182" width="160" height="26" as="geometry" />
        </mxCell>
        <mxCell id="NMGzmj7_dPsPPjgjZv2B-59" value="AmountCred" style="text;strokeColor=none;fillColor=none;align=left;verticalAlign=top;spacingLeft=4;spacingRight=4;overflow=hidden;rotatable=0;points=[[0,0.5],[1,0.5]];portConstraint=eastwest;whiteSpace=wrap;html=1;fontColor=#000000;" parent="NMGzmj7_dPsPPjgjZv2B-51" vertex="1">
          <mxGeometry y="208" width="160" height="26" as="geometry" />
        </mxCell>
        <mxCell id="NMGzmj7_dPsPPjgjZv2B-60" value="DebitID" style="text;strokeColor=none;fillColor=none;align=left;verticalAlign=top;spacingLeft=4;spacingRight=4;overflow=hidden;rotatable=0;points=[[0,0.5],[1,0.5]];portConstraint=eastwest;whiteSpace=wrap;html=1;fontColor=#000000;" parent="NMGzmj7_dPsPPjgjZv2B-51" vertex="1">
          <mxGeometry y="234" width="160" height="26" as="geometry" />
        </mxCell>
        <mxCell id="NMGzmj7_dPsPPjgjZv2B-61" value="CreditID" style="text;strokeColor=none;fillColor=none;align=left;verticalAlign=top;spacingLeft=4;spacingRight=4;overflow=hidden;rotatable=0;points=[[0,0.5],[1,0.5]];portConstraint=eastwest;whiteSpace=wrap;html=1;fontColor=#000000;" parent="NMGzmj7_dPsPPjgjZv2B-51" vertex="1">
          <mxGeometry y="260" width="160" height="26" as="geometry" />
        </mxCell>
        <mxCell id="NMGzmj7_dPsPPjgjZv2B-62" value="DocDate" style="text;strokeColor=none;fillColor=none;align=left;verticalAlign=top;spacingLeft=4;spacingRight=4;overflow=hidden;rotatable=0;points=[[0,0.5],[1,0.5]];portConstraint=eastwest;whiteSpace=wrap;html=1;fontColor=#000000;" parent="NMGzmj7_dPsPPjgjZv2B-51" vertex="1">
          <mxGeometry y="286" width="160" height="26" as="geometry" />
        </mxCell>
        <mxCell id="NMGzmj7_dPsPPjgjZv2B-63" value="Description" style="text;strokeColor=none;fillColor=none;align=left;verticalAlign=top;spacingLeft=4;spacingRight=4;overflow=hidden;rotatable=0;points=[[0,0.5],[1,0.5]];portConstraint=eastwest;whiteSpace=wrap;html=1;fontColor=#000000;" parent="NMGzmj7_dPsPPjgjZv2B-51" vertex="1">
          <mxGeometry y="312" width="160" height="26" as="geometry" />
        </mxCell>
        <mxCell id="NMGzmj7_dPsPPjgjZv2B-64" value="UserID" style="text;strokeColor=none;fillColor=none;align=left;verticalAlign=top;spacingLeft=4;spacingRight=4;overflow=hidden;rotatable=0;points=[[0,0.5],[1,0.5]];portConstraint=eastwest;whiteSpace=wrap;html=1;fontColor=#000000;" parent="NMGzmj7_dPsPPjgjZv2B-51" vertex="1">
          <mxGeometry y="338" width="160" height="26" as="geometry" />
        </mxCell>
        <mxCell id="NMGzmj7_dPsPPjgjZv2B-65" value="ChanelID" style="text;strokeColor=none;fillColor=none;align=left;verticalAlign=top;spacingLeft=4;spacingRight=4;overflow=hidden;rotatable=0;points=[[0,0.5],[1,0.5]];portConstraint=eastwest;whiteSpace=wrap;html=1;fontColor=#000000;" parent="NMGzmj7_dPsPPjgjZv2B-51" vertex="1">
          <mxGeometry y="364" width="160" height="26" as="geometry" />
        </mxCell>
        <mxCell id="NMGzmj7_dPsPPjgjZv2B-66" style="edgeStyle=orthogonalEdgeStyle;rounded=0;orthogonalLoop=1;jettySize=auto;html=1;exitX=1.016;exitY=0.045;exitDx=0;exitDy=0;exitPerimeter=0;" parent="1" source="NMGzmj7_dPsPPjgjZv2B-57" target="NMGzmj7_dPsPPjgjZv2B-9" edge="1">
          <mxGeometry relative="1" as="geometry">
            <Array as="points">
              <mxPoint x="570" y="527" />
              <mxPoint x="570" y="527" />
            </Array>
          </mxGeometry>
        </mxCell>
        <mxCell id="NMGzmj7_dPsPPjgjZv2B-67" style="edgeStyle=elbowEdgeStyle;rounded=0;orthogonalLoop=1;jettySize=auto;html=1;elbow=vertical;curved=0;" parent="1" source="NMGzmj7_dPsPPjgjZv2B-11" target="NMGzmj7_dPsPPjgjZv2B-41" edge="1">
          <mxGeometry relative="1" as="geometry">
            <Array as="points">
              <mxPoint x="1040" y="910" />
              <mxPoint x="970" y="920" />
              <mxPoint x="1050" y="1020" />
              <mxPoint x="870" y="840" />
              <mxPoint x="1040" y="690" />
            </Array>
          </mxGeometry>
        </mxCell>
        <mxCell id="NMGzmj7_dPsPPjgjZv2B-68" value="კონვერტაციის ოპერაციის&lt;br&gt;გადაგზავნა" style="edgeLabel;html=1;align=center;verticalAlign=middle;resizable=0;points=[];" parent="NMGzmj7_dPsPPjgjZv2B-67" vertex="1" connectable="0">
          <mxGeometry x="-0.3882" y="-1" relative="1" as="geometry">
            <mxPoint x="-36" y="-28" as="offset" />
          </mxGeometry>
        </mxCell>
        <mxCell id="NMGzmj7_dPsPPjgjZv2B-69" style="edgeStyle=orthogonalEdgeStyle;rounded=0;orthogonalLoop=1;jettySize=auto;html=1;" parent="1" source="NMGzmj7_dPsPPjgjZv2B-47" target="NMGzmj7_dPsPPjgjZv2B-2" edge="1">
          <mxGeometry relative="1" as="geometry">
            <mxPoint x="220" y="1080" as="targetPoint" />
            <Array as="points">
              <mxPoint x="210" y="1080" />
              <mxPoint x="210" y="1080" />
            </Array>
          </mxGeometry>
        </mxCell>
        <mxCell id="NMGzmj7_dPsPPjgjZv2B-70" style="edgeStyle=elbowEdgeStyle;rounded=0;orthogonalLoop=1;jettySize=auto;html=1;elbow=vertical;curved=0;" parent="1" source="NMGzmj7_dPsPPjgjZv2B-11" edge="1">
          <mxGeometry relative="1" as="geometry">
            <mxPoint x="490" y="1070" as="targetPoint" />
            <Array as="points">
              <mxPoint x="550" y="1070" />
              <mxPoint x="560" y="1080" />
              <mxPoint x="520" y="1070" />
              <mxPoint x="560" y="1050" />
              <mxPoint x="570" y="1040" />
              <mxPoint x="530" y="1110" />
            </Array>
          </mxGeometry>
        </mxCell>
        <UserObject label="ReturnConversiosStatus" id="NMGzmj7_dPsPPjgjZv2B-71">
          <mxCell style="swimlane;fontStyle=0;childLayout=stackLayout;horizontal=1;startSize=26;fillColor=none;horizontalStack=0;resizeParent=1;resizeParentMax=0;resizeLast=0;collapsible=1;marginBottom=0;html=1;fontColor=#000000;" parent="1" vertex="1">
            <mxGeometry x="740" y="900" width="160" height="78" as="geometry" />
          </mxCell>
        </UserObject>
        <mxCell id="NMGzmj7_dPsPPjgjZv2B-72" value="REC_ID" style="text;strokeColor=none;fillColor=none;align=left;verticalAlign=top;spacingLeft=4;spacingRight=4;overflow=hidden;rotatable=0;points=[[0,0.5],[1,0.5]];portConstraint=eastwest;whiteSpace=wrap;html=1;fontColor=#000000;" parent="NMGzmj7_dPsPPjgjZv2B-71" vertex="1">
          <mxGeometry y="26" width="160" height="26" as="geometry" />
        </mxCell>
        <mxCell id="NMGzmj7_dPsPPjgjZv2B-73" value="REC_STATE" style="text;strokeColor=none;fillColor=none;align=left;verticalAlign=top;spacingLeft=4;spacingRight=4;overflow=hidden;rotatable=0;points=[[0,0.5],[1,0.5]];portConstraint=eastwest;whiteSpace=wrap;html=1;fontColor=#000000;" parent="NMGzmj7_dPsPPjgjZv2B-71" vertex="1">
          <mxGeometry y="52" width="160" height="26" as="geometry" />
        </mxCell>
        <mxCell id="NMGzmj7_dPsPPjgjZv2B-74" style="edgeStyle=orthogonalEdgeStyle;rounded=0;orthogonalLoop=1;jettySize=auto;html=1;exitX=0;exitY=0.5;exitDx=0;exitDy=0;" parent="1" source="NMGzmj7_dPsPPjgjZv2B-72" edge="1">
          <mxGeometry relative="1" as="geometry">
            <mxPoint x="630" y="940" as="targetPoint" />
            <Array as="points">
              <mxPoint x="633" y="939" />
            </Array>
          </mxGeometry>
        </mxCell>
        <mxCell id="7s_9sRm-GXUVsdinn2DH-1" style="edgeStyle=elbowEdgeStyle;rounded=0;orthogonalLoop=1;jettySize=auto;html=1;elbow=vertical;curved=0;dashed=1;fontSize=10;fontColor=#990000;" parent="1" source="NMGzmj7_dPsPPjgjZv2B-10" edge="1">
          <mxGeometry relative="1" as="geometry">
            <mxPoint x="500" y="280" as="targetPoint" />
            <Array as="points">
              <mxPoint x="520" y="280" />
            </Array>
          </mxGeometry>
        </mxCell>
        <mxCell id="7s_9sRm-GXUVsdinn2DH-2" style="edgeStyle=orthogonalEdgeStyle;rounded=0;orthogonalLoop=1;jettySize=auto;html=1;entryX=0.95;entryY=0.12;entryDx=0;entryDy=0;entryPerimeter=0;dashed=1;fontSize=10;fontColor=#990000;exitX=0;exitY=0.5;exitDx=0;exitDy=0;" parent="1" source="NMGzmj7_dPsPPjgjZv2B-28" target="NMGzmj7_dPsPPjgjZv2B-2" edge="1">
          <mxGeometry relative="1" as="geometry">
            <Array as="points">
              <mxPoint x="340" y="280" />
            </Array>
          </mxGeometry>
        </mxCell>
        <mxCell id="7s_9sRm-GXUVsdinn2DH-3" value="შეთანხმებული კურსი" style="edgeLabel;html=1;align=center;verticalAlign=middle;resizable=0;points=[];fontSize=10;fontColor=#660000;fontStyle=1" parent="7s_9sRm-GXUVsdinn2DH-2" vertex="1" connectable="0">
          <mxGeometry x="0.4527" y="-1" relative="1" as="geometry">
            <mxPoint x="11" y="-23" as="offset" />
          </mxGeometry>
        </mxCell>
      </root>
    </mxGraphModel>
  </diagram>
</mxfile>
